<svg width="482" height="392" viewBox="0 0 482 392" fill="none" xmlns="http://www.w3.org/2000/svg">
<path d="M273.098 381.238L408.631 135.23C412.37 128.885 412.62 126.956 408.631 125.777H299.737C295.997 125.605 294.4 127.194 291.792 130.837L174.953 341.213H162.334L276.837 134.254C279.476 130.401 279.641 126.932 275.902 125.777C275.752 125.675 275.597 125.572 275.435 125.468H121.674L114.197 112.289H415.642C421.195 112.493 423.234 111.29 425.456 107.408L479.202 9.78598C482.093 3.86612 481.291 2.39944 478.267 1H4.83514C1.72757 1.29199 0.650757 2.10779 1.09625 5.88107L22.5947 44.4418C25.2367 49.7351 27.2246 50.3352 31.0071 50.2991H402.556L395.078 63.4781H39.8869C35.6345 63.4755 34.5979 64.4871 36.148 68.8473L91.7635 170.374C93.9402 173.872 95.2817 174.732 97.8391 174.767H196.919C199.64 174.629 200.244 175.107 199.256 177.208L86.1552 381.238C83.2168 387.499 83.2514 389.762 87.0899 391H198.788C201.467 390.41 203.31 387.486 206.733 381.238L320.301 175.743H332.452L219.352 381.238C215.945 387.838 216.415 389.779 220.287 391H265.62C268.404 389.925 270.063 387.341 273.098 381.238Z" fill="black" stroke="black" stroke-width="0.934542"/>
</svg>
