<svg width="2496" height="460" viewBox="0 0 2496 460" fill="none" xmlns="http://www.w3.org/2000/svg">
<path d="M273.098 415.238L408.631 169.23C412.37 162.885 412.62 160.956 408.631 159.777H299.737C295.997 159.605 294.4 161.194 291.792 164.837L174.953 375.213H162.334L276.837 168.254C279.476 164.401 279.641 160.932 275.902 159.777C275.752 159.675 275.597 159.572 275.435 159.468H121.674L114.197 146.289H415.642C421.195 146.493 423.234 145.29 425.456 141.408L479.202 43.786C482.093 37.8661 481.291 36.3994 478.267 35H4.83514C1.72757 35.292 0.650757 36.1078 1.09625 39.8811L22.5947 78.4418C25.2367 83.7351 27.2246 84.3352 31.0071 84.2991H402.556L395.078 97.4781H39.8869C35.6345 97.4755 34.5979 98.4871 36.148 102.847L91.7635 204.374C93.9402 207.872 95.2817 208.732 97.8391 208.767H196.919C199.64 208.629 200.244 209.107 199.256 211.208L86.1552 415.238C83.2168 421.499 83.2514 423.762 87.0899 425H198.788C201.467 424.41 203.31 421.486 206.733 415.238L320.301 209.743H332.452L219.352 415.238C215.945 421.838 216.415 423.779 220.287 425H265.62C268.404 423.925 270.063 421.341 273.098 415.238Z" fill="black" stroke="black" stroke-width="0.934542"/>
<path d="M959.179 160.708H824.971V376H760.663V160.708H638.105V108.05H959.179V160.708ZM1150.16 108.05H1208.87V376H1150.16V108.05ZM1432.53 108.05H1485.65L1581.65 198.454V268.82L1491.24 181.678V376H1432.53V108.05ZM1694.88 300.508V108.05H1753.6V376H1698.61L1602.62 283.732V215.696L1694.88 300.508ZM1837.33 311.692H1901.63V376H1837.33V311.692ZM1985.35 108.05H2038.48L2134.47 198.454V268.82L2044.07 181.678V376H1985.35V108.05ZM2247.71 300.508V108.05H2306.43V376H2251.44L2155.44 283.732V215.696L2247.71 300.508Z" fill="black"/>
</svg>
